<svg width="24" height="24" viewBox="0 0 24 24" fill="none" xmlns="http://www.w3.org/2000/svg">
<g id="ri:bus-fill">
<path id="Vector" d="M17.5 20V19.5H17H7H6.5V20V21C6.5 21.1326 6.44732 21.2598 6.35355 21.3536C6.25979 21.4473 6.13261 21.5 6 21.5H5C4.86739 21.5 4.74021 21.4473 4.64645 21.3536C4.55268 21.2598 4.5 21.1326 4.5 21V20V19.5H4H3.5V12V11.5H3H2.5V8.5H3H3.5V8V5C3.5 4.60218 3.65804 4.22064 3.93934 3.93934C4.22064 3.65804 4.60218 3.5 5 3.5H19C19.3978 3.5 19.7794 3.65804 20.0607 3.93934C20.342 4.22064 20.5 4.60218 20.5 5V8V8.5H21H21.5V11.5H21H20.5V12V19.5H20H19.5V20V21C19.5 21.1326 19.4473 21.2598 19.3536 21.3536C19.2598 21.4473 19.1326 21.5 19 21.5H18C17.8674 21.5 17.7402 21.4473 17.6464 21.3536C17.5527 21.2598 17.5 21.1326 17.5 21V20ZM5 4.5H4.5V5V14V14.5H5H19H19.5V14V5V4.5H19H5ZM5 15.5H4.5V16V18V18.5H5H9H9.5V18V16V15.5H9H5ZM15 15.5H14.5V16V18V18.5H15H19H19.5V18V16V15.5H19H15Z" fill="#16A34A" stroke="#16A34A"/>
</g>
</svg>
