<svg width="24" height="24" viewBox="0 0 24 24" fill="none" xmlns="http://www.w3.org/2000/svg">
<g id="mdi:car-outline">
<path id="Vector" d="M18.4257 6.15811L18.4256 6.15813L18.4281 6.16518L20.5 12.085V20C20.5 20.0874 20.4513 20.2166 20.3339 20.3339C20.2166 20.4513 20.0874 20.5 20 20.5H19C18.9126 20.5 18.7834 20.4513 18.6661 20.3339C18.5487 20.2166 18.5 20.0874 18.5 20V19V18.5H18H6H5.5V19V20C5.5 20.2569 5.29193 20.5 5 20.5H4C3.91262 20.5 3.78338 20.4513 3.66605 20.3339C3.54873 20.2166 3.5 20.0874 3.5 20V12.085L5.57193 6.16518L5.57198 6.16519L5.57434 6.15811C5.70903 5.75404 6.02378 5.5 6.5 5.5H17.5C17.8962 5.5 18.2973 5.77294 18.4257 6.15811ZM6.8 6.5H6.43962L6.32566 6.84189L5.32566 9.84189L5.10629 10.5H5.8H18.2H18.9159L18.6694 9.82787L17.5694 6.82787L17.4492 6.5H17.1H6.8ZM19 17.5H19.5V17V12V11.5H19H5H4.5V12V17V17.5H5H19ZM7.5 13.5C8.02386 13.5 8.5 13.9761 8.5 14.5C8.5 15.0239 8.02386 15.5 7.5 15.5C6.97614 15.5 6.5 15.0239 6.5 14.5C6.5 13.9761 6.97614 13.5 7.5 13.5ZM16.5 13.5C17.0239 13.5 17.5 13.9761 17.5 14.5C17.5 15.0239 17.0239 15.5 16.5 15.5C15.9761 15.5 15.5 15.0239 15.5 14.5C15.5 13.9761 15.9761 13.5 16.5 13.5Z" fill="#16A34A" stroke="#16A34A"/>
</g>
</svg>
