<svg width="13" height="15" viewBox="0 0 13 15" fill="none" xmlns="http://www.w3.org/2000/svg">
<g id="Group">
<path id="Vector" fill-rule="evenodd" clip-rule="evenodd" d="M6.5 8.49119C7.03026 8.49119 7.53882 8.28061 7.91386 7.90576C8.2889 7.5309 8.49973 7.02245 8.5 6.49219C8.5 5.96175 8.28929 5.45305 7.91421 5.07797C7.53914 4.7029 7.03043 4.49219 6.5 4.49219C5.96957 4.49219 5.46086 4.7029 5.08579 5.07797C4.71071 5.45305 4.5 5.96175 4.5 6.49219C4.50027 7.02245 4.7111 7.5309 5.08614 7.90576C5.46118 8.28061 5.96974 8.49119 6.5 8.49119Z" stroke="#3F3F46" stroke-linecap="square"/>
<path id="Vector_2" fill-rule="evenodd" clip-rule="evenodd" d="M12.5 6.496C12.5 11.493 7.5 14.491 6.5 14.491C5.5 14.491 0.5 11.493 0.5 6.496C0.50106 4.90539 1.13367 3.3803 2.25877 2.25594C3.38388 1.13159 4.90939 0.5 6.5 0.5C9.813 0.5 12.5 3.185 12.5 6.496Z" stroke="#3F3F46" stroke-linecap="square"/>
</g>
</svg>
