<svg width="24" height="24" viewBox="0 0 24 24" fill="none" xmlns="http://www.w3.org/2000/svg">
<g id="stash:airplane">
<g id="Vector">
<mask id="path-1-inside-1_106_1647" fill="white">
<path fill-rule="evenodd" clip-rule="evenodd" d="M20.6326 2.27576C20.8566 2.31076 21.1426 2.40076 21.3706 2.62876C21.5996 2.85776 21.6886 3.14276 21.7236 3.36676C21.7606 3.59676 21.7536 3.83976 21.7286 4.06676C21.6766 4.52476 21.5336 5.04276 21.3526 5.54076C20.9986 6.51276 20.4226 7.61076 19.8466 8.18676L19.8316 8.20176L18.1436 9.79676L20.1636 15.1308C20.2976 15.4522 20.3355 15.8057 20.2727 16.1482C20.2099 16.4908 20.049 16.8078 19.8096 17.0608L18.4126 18.5408C18.3356 18.6207 18.2421 18.6828 18.1385 18.7225C18.0349 18.7623 17.9238 18.7788 17.8131 18.7709C17.7025 18.7629 17.5949 18.7308 17.498 18.6767C17.4012 18.6226 17.3174 18.5478 17.2526 18.4578L13.9496 13.7618L13.0376 14.6248C12.5176 15.1438 12.0096 15.6198 11.5156 15.9788C11.2916 16.1418 11.0556 16.2918 10.8086 16.4118L11.6526 18.5498C11.9126 19.2098 11.7226 19.9428 11.2566 20.4358L10.2346 21.5158C10.1603 21.5925 10.0706 21.6527 9.97143 21.6924C9.87223 21.732 9.76577 21.7502 9.65904 21.7458C9.5523 21.7413 9.44772 21.7144 9.35216 21.6666C9.25659 21.6189 9.17222 21.5514 9.10458 21.4688L6.18258 17.8168L2.53158 14.8948C2.4489 14.8271 2.38147 14.7427 2.33372 14.6472C2.28598 14.5516 2.259 14.447 2.25456 14.3403C2.25012 14.2336 2.26832 14.1271 2.30797 14.0279C2.34761 13.9287 2.4078 13.839 2.48458 13.7648L3.56458 12.7438C4.05658 12.2778 4.79058 12.0858 5.44958 12.3468L7.58858 13.1918C7.70858 12.9438 7.85858 12.7078 8.02058 12.4838C8.37958 11.9898 8.85558 11.4818 9.37558 10.9618L10.2376 10.0498L5.54158 6.74576C5.45167 6.68097 5.37707 6.59722 5.32307 6.50044C5.26907 6.40366 5.23698 6.29621 5.22906 6.18566C5.22115 6.07512 5.2376 5.96419 5.27726 5.8607C5.31692 5.75721 5.37882 5.6637 5.45858 5.58676L6.93858 4.18976C7.19165 3.95052 7.50869 3.78984 7.85126 3.72718C8.19382 3.66453 8.54721 3.70259 8.86858 3.83676L14.2026 5.85576L15.7976 4.16776L15.8126 4.15276C16.3896 3.57576 17.4866 2.99976 18.4596 2.64676C18.9576 2.46576 19.4756 2.32276 19.9336 2.27076C20.1606 2.24576 20.4036 2.23876 20.6336 2.27576M16.8796 5.20676L14.9496 7.24876C14.848 7.35652 14.7167 7.43179 14.5724 7.46507C14.4281 7.49835 14.2771 7.48815 14.1386 7.43576L8.32458 5.23476L8.29458 5.22276C8.24064 5.19924 8.18097 5.1921 8.12301 5.20224C8.06504 5.21237 8.01134 5.23933 7.96858 5.27976L7.15558 6.04776L11.8096 9.32176C12.1776 9.58176 12.2326 10.1228 11.9226 10.4508L10.4576 11.9998L10.4436 12.0138C9.93058 12.5268 9.52158 12.9678 9.23358 13.3638C8.94258 13.7668 8.82758 14.0518 8.80858 14.2548C8.79627 14.3699 8.75769 14.4807 8.69583 14.5786C8.63396 14.6765 8.55045 14.759 8.45173 14.8195C8.35301 14.8801 8.24171 14.9172 8.12639 14.928C8.01108 14.9388 7.89482 14.923 7.78658 14.8818L4.89858 13.7408C4.63658 13.6368 4.29858 14.1118 4.14158 14.2608L7.18458 16.6968C7.22709 16.7324 7.26656 16.7715 7.30258 16.8138L9.73758 19.8568C9.88658 19.6998 10.3616 19.3618 10.2576 19.0998L9.11758 16.2128C9.0762 16.1045 9.06021 15.9883 9.07086 15.8729C9.0815 15.7575 9.11848 15.6461 9.17896 15.5473C9.23943 15.4485 9.32179 15.3648 9.41968 15.3028C9.51757 15.2409 9.62838 15.2022 9.74358 15.1898C9.94658 15.1708 10.2316 15.0558 10.6336 14.7638C11.0306 14.4768 11.4716 14.0678 11.9836 13.5548L11.9996 13.5408L13.5496 12.0758C13.6283 12.0031 13.7216 11.948 13.8232 11.9141C13.9248 11.8801 14.0324 11.8681 14.139 11.8788C14.2456 11.8895 14.3487 11.9226 14.4415 11.976C14.5343 12.0295 14.6148 12.102 14.6776 12.1888L17.9516 16.8428L18.7196 16.0298C18.76 15.9872 18.787 15.9337 18.7973 15.876C18.8076 15.8182 18.8008 15.7587 18.7776 15.7048L18.7646 15.6748L16.5646 9.85976C16.5123 9.72144 16.502 9.57076 16.5351 9.42664C16.5682 9.28252 16.6432 9.1514 16.7506 9.04976L18.7926 7.11876C19.1396 6.76776 19.6186 5.91876 19.9426 5.02676C20.0906 4.62176 20.2346 4.18476 20.2486 3.74976C19.8136 3.76376 19.3766 3.90776 18.9716 4.05576C18.0806 4.37976 17.2316 4.85976 16.8796 5.20676Z"/>
</mask>
<path fill-rule="evenodd" clip-rule="evenodd" d="M20.6326 2.27576C20.8566 2.31076 21.1426 2.40076 21.3706 2.62876C21.5996 2.85776 21.6886 3.14276 21.7236 3.36676C21.7606 3.59676 21.7536 3.83976 21.7286 4.06676C21.6766 4.52476 21.5336 5.04276 21.3526 5.54076C20.9986 6.51276 20.4226 7.61076 19.8466 8.18676L19.8316 8.20176L18.1436 9.79676L20.1636 15.1308C20.2976 15.4522 20.3355 15.8057 20.2727 16.1482C20.2099 16.4908 20.049 16.8078 19.8096 17.0608L18.4126 18.5408C18.3356 18.6207 18.2421 18.6828 18.1385 18.7225C18.0349 18.7623 17.9238 18.7788 17.8131 18.7709C17.7025 18.7629 17.5949 18.7308 17.498 18.6767C17.4012 18.6226 17.3174 18.5478 17.2526 18.4578L13.9496 13.7618L13.0376 14.6248C12.5176 15.1438 12.0096 15.6198 11.5156 15.9788C11.2916 16.1418 11.0556 16.2918 10.8086 16.4118L11.6526 18.5498C11.9126 19.2098 11.7226 19.9428 11.2566 20.4358L10.2346 21.5158C10.1603 21.5925 10.0706 21.6527 9.97143 21.6924C9.87223 21.732 9.76577 21.7502 9.65904 21.7458C9.5523 21.7413 9.44772 21.7144 9.35216 21.6666C9.25659 21.6189 9.17222 21.5514 9.10458 21.4688L6.18258 17.8168L2.53158 14.8948C2.4489 14.8271 2.38147 14.7427 2.33372 14.6472C2.28598 14.5516 2.259 14.447 2.25456 14.3403C2.25012 14.2336 2.26832 14.1271 2.30797 14.0279C2.34761 13.9287 2.4078 13.839 2.48458 13.7648L3.56458 12.7438C4.05658 12.2778 4.79058 12.0858 5.44958 12.3468L7.58858 13.1918C7.70858 12.9438 7.85858 12.7078 8.02058 12.4838C8.37958 11.9898 8.85558 11.4818 9.37558 10.9618L10.2376 10.0498L5.54158 6.74576C5.45167 6.68097 5.37707 6.59722 5.32307 6.50044C5.26907 6.40366 5.23698 6.29621 5.22906 6.18566C5.22115 6.07512 5.2376 5.96419 5.27726 5.8607C5.31692 5.75721 5.37882 5.6637 5.45858 5.58676L6.93858 4.18976C7.19165 3.95052 7.50869 3.78984 7.85126 3.72718C8.19382 3.66453 8.54721 3.70259 8.86858 3.83676L14.2026 5.85576L15.7976 4.16776L15.8126 4.15276C16.3896 3.57576 17.4866 2.99976 18.4596 2.64676C18.9576 2.46576 19.4756 2.32276 19.9336 2.27076C20.1606 2.24576 20.4036 2.23876 20.6336 2.27576M16.8796 5.20676L14.9496 7.24876C14.848 7.35652 14.7167 7.43179 14.5724 7.46507C14.4281 7.49835 14.2771 7.48815 14.1386 7.43576L8.32458 5.23476L8.29458 5.22276C8.24064 5.19924 8.18097 5.1921 8.12301 5.20224C8.06504 5.21237 8.01134 5.23933 7.96858 5.27976L7.15558 6.04776L11.8096 9.32176C12.1776 9.58176 12.2326 10.1228 11.9226 10.4508L10.4576 11.9998L10.4436 12.0138C9.93058 12.5268 9.52158 12.9678 9.23358 13.3638C8.94258 13.7668 8.82758 14.0518 8.80858 14.2548C8.79627 14.3699 8.75769 14.4807 8.69583 14.5786C8.63396 14.6765 8.55045 14.759 8.45173 14.8195C8.35301 14.8801 8.24171 14.9172 8.12639 14.928C8.01108 14.9388 7.89482 14.923 7.78658 14.8818L4.89858 13.7408C4.63658 13.6368 4.29858 14.1118 4.14158 14.2608L7.18458 16.6968C7.22709 16.7324 7.26656 16.7715 7.30258 16.8138L9.73758 19.8568C9.88658 19.6998 10.3616 19.3618 10.2576 19.0998L9.11758 16.2128C9.0762 16.1045 9.06021 15.9883 9.07086 15.8729C9.0815 15.7575 9.11848 15.6461 9.17896 15.5473C9.23943 15.4485 9.32179 15.3648 9.41968 15.3028C9.51757 15.2409 9.62838 15.2022 9.74358 15.1898C9.94658 15.1708 10.2316 15.0558 10.6336 14.7638C11.0306 14.4768 11.4716 14.0678 11.9836 13.5548L11.9996 13.5408L13.5496 12.0758C13.6283 12.0031 13.7216 11.948 13.8232 11.9141C13.9248 11.8801 14.0324 11.8681 14.139 11.8788C14.2456 11.8895 14.3487 11.9226 14.4415 11.976C14.5343 12.0295 14.6148 12.102 14.6776 12.1888L17.9516 16.8428L18.7196 16.0298C18.76 15.9872 18.787 15.9337 18.7973 15.876C18.8076 15.8182 18.8008 15.7587 18.7776 15.7048L18.7646 15.6748L16.5646 9.85976C16.5123 9.72144 16.502 9.57076 16.5351 9.42664C16.5682 9.28252 16.6432 9.1514 16.7506 9.04976L18.7926 7.11876C19.1396 6.76776 19.6186 5.91876 19.9426 5.02676C20.0906 4.62176 20.2346 4.18476 20.2486 3.74976C19.8136 3.76376 19.3766 3.90776 18.9716 4.05576C18.0806 4.37976 17.2316 4.85976 16.8796 5.20676Z" fill="#16A34A"/>
<path d="M21.7236 3.36676L20.7356 3.52113L20.7363 3.52558L21.7236 3.36676ZM21.7286 4.06676L22.7222 4.17957L22.7226 4.17623L21.7286 4.06676ZM21.3526 5.54076L22.2922 5.88296L22.2924 5.88235L21.3526 5.54076ZM19.8316 8.20176L20.5184 8.9286L20.5287 8.91888L20.5387 8.90886L19.8316 8.20176ZM18.1436 9.79676L17.4568 9.06991L16.9724 9.52764L17.2084 10.1509L18.1436 9.79676ZM20.1636 15.1308L19.2284 15.4849L19.2342 15.5004L19.2406 15.5156L20.1636 15.1308ZM19.8096 17.0608L19.0833 16.3734L19.0824 16.3743L19.8096 17.0608ZM18.4126 18.5408L19.1331 19.2343L19.1398 19.2272L18.4126 18.5408ZM17.2526 18.4578L16.4346 19.0331L16.4407 19.0416L17.2526 18.4578ZM13.9496 13.7618L14.7675 13.1864L14.1022 12.2406L13.2623 13.0354L13.9496 13.7618ZM13.0376 14.6248L12.3503 13.8984L12.3406 13.9076L12.3312 13.917L13.0376 14.6248ZM11.5156 15.9788L10.9277 15.1698L10.9272 15.1702L11.5156 15.9788ZM10.8086 16.4118L10.3716 15.5123L9.53823 15.9172L9.87843 16.7789L10.8086 16.4118ZM11.6526 18.5498L12.583 18.1832L12.5827 18.1826L11.6526 18.5498ZM11.2566 20.4358L11.9829 21.1231L11.9833 21.1227L11.2566 20.4358ZM10.2346 21.5158L10.9534 22.2111L10.9609 22.2031L10.2346 21.5158ZM9.10458 21.4688L8.32371 22.0935L8.33058 22.1019L9.10458 21.4688ZM6.18258 17.8168L6.96341 17.192L6.89408 17.1054L6.80743 17.036L6.18258 17.8168ZM2.53158 14.8948L1.89835 15.6688L1.90673 15.6755L2.53158 14.8948ZM2.48458 13.7648L1.79756 13.038L1.7893 13.046L2.48458 13.7648ZM3.56458 12.7438L4.25156 13.4704L4.25224 13.4698L3.56458 12.7438ZM5.44958 12.3468L5.08135 13.2765L5.08217 13.2768L5.44958 12.3468ZM7.58858 13.1918L7.22117 14.1218L8.08445 14.4628L8.48874 13.6273L7.58858 13.1918ZM8.02058 12.4838L7.21163 11.8959L7.21028 11.8977L8.02058 12.4838ZM9.37558 10.9618L10.0827 11.6689L10.0926 11.6589L10.1023 11.6487L9.37558 10.9618ZM10.2376 10.0498L10.9643 10.7367L11.7581 9.89685L10.813 9.2319L10.2376 10.0498ZM5.54158 6.74576L4.95693 7.55712L4.96616 7.56361L5.54158 6.74576ZM5.45858 5.58676L4.77212 4.85951L4.76433 4.86703L5.45858 5.58676ZM6.93858 4.18976L7.625 4.91696L7.62554 4.91645L6.93858 4.18976ZM8.86858 3.83676L8.48332 4.75956L8.49884 4.76604L8.51458 4.772L8.86858 3.83676ZM14.2026 5.85576L13.8486 6.791L14.4718 7.02689L14.9294 6.54256L14.2026 5.85576ZM15.7976 4.16776L15.0905 3.46067L15.0805 3.47067L15.0707 3.48096L15.7976 4.16776ZM15.8126 4.15276L15.1055 3.44565L15.1055 3.44567L15.8126 4.15276ZM18.4596 2.64676L18.8006 3.5868L18.8012 3.5866L18.4596 2.64676ZM19.9336 2.27076L19.8241 1.27676L19.8208 1.27714L19.9336 2.27076ZM16.8796 5.20676L16.1775 4.49461L16.165 4.50702L16.1528 4.51986L16.8796 5.20676ZM14.9496 7.24876L14.2228 6.56186L14.222 6.56275L14.9496 7.24876ZM14.1386 7.43576L13.7845 8.37098L13.7848 8.3711L14.1386 7.43576ZM8.32458 5.23476L7.95318 6.16323L7.96183 6.16669L7.97053 6.16998L8.32458 5.23476ZM8.29458 5.22276L7.89491 6.13942L7.90896 6.14554L7.92318 6.15123L8.29458 5.22276ZM7.96858 5.27976L8.65528 6.0067L8.65558 6.00642L7.96858 5.27976ZM7.15558 6.04776L6.46888 5.32082L5.57907 6.16137L6.58021 6.86565L7.15558 6.04776ZM11.8096 9.32176L12.3866 8.50503L12.385 8.50386L11.8096 9.32176ZM11.9226 10.4508L12.6491 11.1379L12.6493 11.1376L11.9226 10.4508ZM10.4576 11.9998L11.1647 12.7069L11.1745 12.697L11.1841 12.6869L10.4576 11.9998ZM9.23358 13.3638L8.42484 12.7756L8.42285 12.7783L9.23358 13.3638ZM8.80858 14.2548L9.803 14.3611L9.80423 14.3479L8.80858 14.2548ZM7.78658 14.8818L7.41911 15.8119L7.43085 15.8163L7.78658 14.8818ZM4.89858 13.7408L4.52964 14.6702L4.53114 14.6708L4.89858 13.7408ZM4.14158 14.2608L3.45319 13.5354L2.62143 14.3248L3.51663 15.0414L4.14158 14.2608ZM7.18458 16.6968L7.82724 15.9306L7.81846 15.9232L7.80953 15.9161L7.18458 16.6968ZM7.30258 16.8138L8.08337 16.189L8.0735 16.1766L8.06324 16.1646L7.30258 16.8138ZM9.73758 19.8568L8.95679 20.4815L9.67338 21.3771L10.4629 20.5451L9.73758 19.8568ZM10.2576 19.0998L9.32747 19.467L9.32813 19.4687L10.2576 19.0998ZM9.11758 16.2128L8.18347 16.5699L8.18747 16.58L9.11758 16.2128ZM9.74358 15.1898L9.65038 14.194L9.63648 14.1955L9.74358 15.1898ZM10.6336 14.7638L10.0477 13.9533L10.0459 13.9547L10.6336 14.7638ZM11.9836 13.5548L11.3251 12.8022L11.2996 12.8244L11.2758 12.8483L11.9836 13.5548ZM11.9996 13.5408L12.6581 14.2933L12.6725 14.2807L12.6865 14.2675L11.9996 13.5408ZM13.5496 12.0758L12.8716 11.3405L12.8627 11.349L13.5496 12.0758ZM14.6776 12.1888L15.4955 11.6133L15.4878 11.6027L14.6776 12.1888ZM17.9516 16.8428L17.1337 17.4181L17.838 18.4193L18.6785 17.5295L17.9516 16.8428ZM18.7196 16.0298L17.9942 15.3414L17.9926 15.3431L18.7196 16.0298ZM18.7776 15.7048L19.6963 15.3098L19.6951 15.3071L18.7776 15.7048ZM18.7646 15.6748L17.8293 16.0286L17.8376 16.0507L17.847 16.0724L18.7646 15.6748ZM16.5646 9.85976L15.6292 10.2134L15.6293 10.2136L16.5646 9.85976ZM16.7506 9.04976L16.0635 8.32318L16.0632 8.32344L16.7506 9.04976ZM18.7926 7.11876L19.4797 7.84533L19.4919 7.83377L19.5037 7.8218L18.7926 7.11876ZM19.9426 5.02676L19.0033 4.68352L19.0027 4.68535L19.9426 5.02676ZM20.2486 3.74976L21.2481 3.78192L21.2824 2.71597L20.2164 2.75027L20.2486 3.74976ZM18.9716 4.05576L19.3133 4.99555L19.3148 4.99501L18.9716 4.05576ZM20.4782 3.26377C20.5273 3.27144 20.5697 3.28326 20.603 3.29768C20.6345 3.3113 20.6523 3.32469 20.6635 3.33586L22.0777 1.92165C21.6443 1.4883 21.1265 1.34079 20.787 1.28774L20.4782 3.26377ZM20.6635 3.33586C20.6868 3.35915 20.7185 3.41187 20.7356 3.52113L22.7116 3.21238C22.6587 2.87364 22.5124 2.35637 22.0777 1.92165L20.6635 3.33586ZM20.7363 3.52558C20.7538 3.63454 20.7541 3.77986 20.7346 3.95729L22.7226 4.17623C22.753 3.89965 22.7674 3.55897 22.7109 3.20793L20.7363 3.52558ZM20.735 3.95394C20.6951 4.30502 20.579 4.74163 20.4127 5.19916L22.2924 5.88235C22.4881 5.34389 22.6581 4.74449 22.7222 4.17957L20.735 3.95394ZM20.413 5.19855C20.0772 6.12049 19.5623 7.0568 19.1395 7.47965L20.5537 8.89386C21.2828 8.16472 21.92 6.90502 22.2922 5.88296L20.413 5.19855ZM19.1395 7.47965L19.1245 7.49465L20.5387 8.90886L20.5537 8.89386L19.1395 7.47965ZM19.1448 7.47491L17.4568 9.06991L18.8304 10.5236L20.5184 8.9286L19.1448 7.47491ZM17.2084 10.1509L19.2284 15.4849L21.0988 14.7766L19.0788 9.4426L17.2084 10.1509ZM19.2406 15.5156C19.3002 15.6585 19.317 15.8156 19.2891 15.9678L21.2563 16.3286C21.354 15.7958 21.2951 15.246 21.0866 14.7459L19.2406 15.5156ZM19.2891 15.9678C19.2612 16.1201 19.1897 16.261 19.0833 16.3734L20.5359 17.7481C20.9083 17.3546 21.1585 16.8615 21.2563 16.3286L19.2891 15.9678ZM19.0824 16.3743L17.6854 17.8543L19.1398 19.2272L20.5368 17.7472L19.0824 16.3743ZM17.6921 17.8473C17.7168 17.8216 17.7468 17.8017 17.7801 17.7889L18.4969 19.6561C18.7373 19.5638 18.9545 19.4198 19.1331 19.2342L17.6921 17.8473ZM17.7801 17.7889C17.8133 17.7762 17.849 17.7709 17.8845 17.7734L17.7418 19.7683C17.9986 19.7867 18.2564 19.7484 18.4969 19.6561L17.7801 17.7889ZM17.8845 17.7734C17.92 17.776 17.9546 17.7863 17.9857 17.8036L17.0104 19.5497C17.2352 19.6753 17.4849 19.7499 17.7418 19.7683L17.8845 17.7734ZM17.9857 17.8036C18.0168 17.821 18.0437 17.845 18.0645 17.8739L16.4407 19.0416C16.5911 19.2507 16.7855 19.4241 17.0104 19.5497L17.9857 17.8036ZM18.0705 17.8824L14.7675 13.1864L13.1316 14.3371L16.4346 19.0331L18.0705 17.8824ZM13.2623 13.0354L12.3503 13.8984L13.7249 15.3511L14.6369 14.4881L13.2623 13.0354ZM12.3312 13.917C11.8178 14.4294 11.3553 14.8591 10.9277 15.1698L12.1035 16.7877C12.6638 16.3805 13.2174 15.8581 13.744 15.3325L12.3312 13.917ZM10.9272 15.1702C10.7357 15.3095 10.551 15.4251 10.3716 15.5123L11.2456 17.3112C11.5602 17.1584 11.8475 16.974 12.104 16.7873L10.9272 15.1702ZM9.87843 16.7789L10.7224 18.9169L12.5827 18.1826L11.7387 16.0446L9.87843 16.7789ZM10.7222 18.9163C10.8235 19.1735 10.7617 19.5035 10.5299 19.7488L11.9833 21.1227C12.6834 20.382 13.0017 19.246 12.583 18.1832L10.7222 18.9163ZM10.5302 19.7484L9.50824 20.8284L10.9609 22.2031L11.9829 21.1231L10.5302 19.7484ZM9.51584 20.8205C9.53968 20.7958 9.56847 20.7765 9.60031 20.7638L10.3425 22.621C10.5728 22.5289 10.7809 22.3892 10.9533 22.211L9.51584 20.8205ZM9.60031 20.7638C9.63216 20.7511 9.66633 20.7452 9.70059 20.7466L9.61748 22.7449C9.8652 22.7552 10.1123 22.713 10.3425 22.621L9.60031 20.7638ZM9.70059 20.7466C9.73485 20.7481 9.76842 20.7567 9.7991 20.7721L8.90521 22.5612C9.12701 22.672 9.36975 22.7346 9.61748 22.7449L9.70059 20.7466ZM9.7991 20.7721C9.82978 20.7874 9.85686 20.809 9.87857 20.8356L8.33058 22.1019C8.48758 22.2939 8.68341 22.4504 8.90521 22.5612L9.7991 20.7721ZM9.88541 20.844L6.96341 17.192L5.40175 18.4415L8.32375 22.0935L9.88541 20.844ZM6.80743 17.036L3.15643 14.114L1.90673 15.6755L5.55773 18.5975L6.80743 17.036ZM3.16477 14.1208C3.19131 14.1425 3.21296 14.1696 3.22828 14.2002L1.43916 15.0941C1.54998 15.3159 1.70648 15.5118 1.89839 15.6688L3.16477 14.1208ZM3.22828 14.2002C3.24361 14.2309 3.25227 14.2645 3.2537 14.2987L1.25542 14.3819C1.26573 14.6296 1.32835 14.8723 1.43916 15.0941L3.22828 14.2002ZM3.2537 14.2987C3.25512 14.333 3.24928 14.3672 3.23655 14.399L1.37938 13.6568C1.28736 13.887 1.24512 14.1341 1.25542 14.3819L3.2537 14.2987ZM3.23655 14.399C3.22383 14.4309 3.2045 14.4597 3.17986 14.4835L1.7893 13.046C1.6111 13.2184 1.47139 13.4266 1.37938 13.6568L3.23655 14.399ZM3.17156 14.4914L4.25156 13.4704L2.8776 12.0171L1.7976 13.0381L3.17156 14.4914ZM4.25224 13.4698C4.49786 13.2372 4.82793 13.1761 5.08135 13.2765L5.81781 11.417C4.75323 10.9954 3.6153 11.3184 2.87692 12.0177L4.25224 13.4698ZM5.08217 13.2768L7.22117 14.1218L7.95599 12.2617L5.81699 11.4167L5.08217 13.2768ZM8.48874 13.6273C8.57569 13.4476 8.69125 13.2628 8.83088 13.0698L7.21028 11.8977C7.02591 12.1527 6.84147 12.4399 6.68842 12.7562L8.48874 13.6273ZM8.82953 13.0716C9.14018 12.6442 9.56981 12.1817 10.0827 11.6689L8.66847 10.2546C8.14135 10.7818 7.61898 11.3353 7.21163 11.8959L8.82953 13.0716ZM10.1023 11.6487L10.9643 10.7367L9.51083 9.36285L8.64883 10.2749L10.1023 11.6487ZM10.813 9.2319L6.117 5.9279L4.96616 7.56361L9.66216 10.8676L10.813 9.2319ZM6.12619 5.93444C6.15505 5.95524 6.179 5.98212 6.19633 6.01319L4.44981 6.9877C4.57515 7.21232 4.74828 7.40669 4.95697 7.55707L6.12619 5.93444ZM6.19633 6.01319C6.21367 6.04425 6.22397 6.07875 6.22651 6.11423L4.23162 6.25709C4.24999 6.51367 4.32448 6.76307 4.44981 6.9877L6.19633 6.01319ZM6.22651 6.11423C6.22905 6.14972 6.22377 6.18533 6.21104 6.21855L4.34348 5.50286C4.25143 5.74305 4.21324 6.00052 4.23162 6.25709L6.22651 6.11423ZM6.21104 6.21855C6.19831 6.25177 6.17844 6.28179 6.15283 6.30649L4.76433 4.86703C4.57919 5.04561 4.43553 5.26266 4.34348 5.50286L6.21104 6.21855ZM6.145 6.31396L7.625 4.91696L6.25216 3.46255L4.77216 4.85955L6.145 6.31396ZM7.62554 4.91645C7.73802 4.81013 7.87892 4.73871 8.03117 4.71086L7.67134 2.7435C7.13846 2.84096 6.64529 3.09092 6.25162 3.46306L7.62554 4.91645ZM8.03117 4.71086C8.18343 4.68302 8.34049 4.69993 8.48332 4.75956L9.25384 2.91395C8.75394 2.70524 8.20422 2.64603 7.67134 2.7435L8.03117 4.71086ZM8.51458 4.772L13.8486 6.791L14.5566 4.92051L9.22258 2.90151L8.51458 4.772ZM14.9294 6.54256L16.5244 4.85456L15.0707 3.48096L13.4757 5.16896L14.9294 6.54256ZM16.5047 4.87484L16.5197 4.85984L15.1055 3.44567L15.0905 3.46067L16.5047 4.87484ZM16.5197 4.85986C16.9437 4.4359 17.8791 3.92112 18.8006 3.5868L18.1185 1.70671C17.094 2.07839 15.8355 2.71561 15.1055 3.44565L16.5197 4.85986ZM18.8012 3.5866C19.2587 3.42031 19.6953 3.30423 20.0464 3.26437L19.8208 1.27714C19.2558 1.34128 18.6564 1.5112 18.118 1.70691L18.8012 3.5866ZM20.0431 3.26475C20.2205 3.24521 20.3658 3.24553 20.4748 3.26306L20.7924 1.28845C20.4414 1.23198 20.1007 1.24631 19.8241 1.27677L20.0431 3.26475ZM16.1528 4.51986L14.2228 6.56186L15.6763 7.93565L17.6063 5.89365L16.1528 4.51986ZM14.222 6.56275C14.2559 6.52682 14.2996 6.50173 14.3477 6.49064L14.7971 8.4395C15.1339 8.36185 15.4401 8.18622 15.6772 7.93477L14.222 6.56275ZM14.3477 6.49064C14.3958 6.47955 14.4461 6.48295 14.4923 6.50041L13.7848 8.3711C14.1081 8.49335 14.4603 8.51716 14.7971 8.4395L14.3477 6.49064ZM14.4926 6.50053L8.67863 4.29953L7.97053 6.16998L13.7845 8.37098L14.4926 6.50053ZM8.69598 4.30628L8.66598 4.29428L7.92318 6.15123L7.95318 6.16323L8.69598 4.30628ZM8.69425 4.3061C8.46051 4.20418 8.20195 4.17326 7.95078 4.21718L8.29524 6.18729C8.15999 6.21094 8.02077 6.19429 7.89491 6.13942L8.69425 4.3061ZM7.95078 4.21718C7.6996 4.2611 7.46688 4.37792 7.28158 4.5531L8.65558 6.00642C8.5558 6.10074 8.43049 6.16365 8.29524 6.18729L7.95078 4.21718ZM7.28188 4.55282L6.46888 5.32082L7.84228 6.77469L8.65528 6.0067L7.28188 4.55282ZM6.58021 6.86565L11.2342 10.1396L12.385 8.50386L7.73095 5.22986L6.58021 6.86565ZM11.2325 10.1385C11.1625 10.089 11.1311 10.0181 11.1254 9.96085C11.1196 9.90331 11.1364 9.82676 11.1958 9.76387L12.6493 11.1376C13.3788 10.3658 13.25 9.11505 12.3866 8.50503L11.2325 10.1385ZM11.196 9.76362L9.73105 11.3126L11.1841 12.6869L12.6491 11.1379L11.196 9.76362ZM9.75047 11.2926L9.73647 11.3066L11.1507 12.7209L11.1647 12.7069L9.75047 11.2926ZM9.73647 11.3066C9.21762 11.8255 8.76161 12.3125 8.42484 12.7756L10.0423 13.9519C10.2816 13.623 10.6435 13.228 11.1507 12.7209L9.73647 11.3066ZM8.42285 12.7783C8.09238 13.236 7.85651 13.6959 7.81293 14.1616L9.80423 14.3479C9.80058 14.387 9.79378 14.3757 9.82785 14.3015C9.86142 14.2284 9.92599 14.113 10.0443 13.9492L8.42285 12.7783ZM7.81425 14.1484C7.8182 14.1115 7.83058 14.0759 7.85044 14.0445L9.54121 15.1128C9.6848 14.8855 9.77433 14.6284 9.80291 14.3611L7.81425 14.1484ZM7.85044 14.0445C7.8703 14.013 7.89711 13.9866 7.9288 13.9671L8.97466 15.6719C9.2038 15.5313 9.39762 15.34 9.54121 15.1128L7.85044 14.0445ZM7.9288 13.9671C7.96049 13.9477 7.99622 13.9358 8.03323 13.9323L8.21955 15.9236C8.4872 15.8986 8.74553 15.8125 8.97466 15.6719L7.9288 13.9671ZM8.03323 13.9323C8.07025 13.9289 8.10757 13.9339 8.14231 13.9472L7.43085 15.8163C7.68208 15.912 7.9519 15.9487 8.21955 15.9236L8.03323 13.9323ZM8.15403 13.9517L5.26603 12.8107L4.53114 14.6708L7.41914 15.8118L8.15403 13.9517ZM5.26752 12.8113C4.86128 12.65 4.49447 12.7485 4.27838 12.8467C4.06935 12.9416 3.9079 13.0752 3.8082 13.1658C3.70152 13.2627 3.60904 13.3634 3.54819 13.4306C3.51123 13.4714 3.49443 13.4904 3.47112 13.5158C3.44935 13.5396 3.4463 13.542 3.45319 13.5354L4.82997 14.9861C4.87611 14.9423 4.91796 14.8972 4.94575 14.8669C4.97201 14.8383 5.00942 14.7965 5.03031 14.7735C5.08518 14.7129 5.12301 14.6734 5.15321 14.646C5.19038 14.6122 5.17237 14.6372 5.10532 14.6677C5.03119 14.7014 4.80488 14.7795 4.52964 14.6702L5.26752 12.8113ZM3.51663 15.0414L6.55963 17.4774L7.80953 15.9161L4.76653 13.4801L3.51663 15.0414ZM6.54192 17.4629V17.4629L8.06324 16.1646C7.99119 16.0802 7.91225 16.0019 7.82724 15.9306L6.54192 17.4629ZM6.52179 17.4385L8.95679 20.4815L10.5184 19.232L8.08337 16.189L6.52179 17.4385ZM10.4629 20.5451C10.4564 20.552 10.4588 20.549 10.4825 20.5272C10.508 20.5039 10.527 20.4871 10.5677 20.4501C10.6349 20.3893 10.7356 20.2968 10.8325 20.1901C10.9231 20.0904 11.0568 19.929 11.1517 19.72C11.2498 19.5039 11.3483 19.1371 11.187 18.7308L9.32813 19.4687C9.21887 19.1935 9.29698 18.9671 9.33064 18.893C9.36109 18.826 9.38614 18.808 9.35236 18.8451C9.32492 18.8753 9.28544 18.9132 9.22488 18.968C9.20181 18.9889 9.16008 19.0263 9.13142 19.0526C9.10109 19.0804 9.05603 19.1222 9.01223 19.1684L10.4629 20.5451ZM11.1877 18.7325L10.0477 15.8455L8.18747 16.58L9.32747 19.467L11.1877 18.7325ZM10.0516 15.8556C10.0649 15.8904 10.07 15.9277 10.0666 15.9647L8.07508 15.781C8.05038 16.0488 8.08749 16.3187 8.18353 16.5699L10.0516 15.8556ZM10.0666 15.9647C10.0632 16.0018 10.0513 16.0375 10.0319 16.0692L8.32598 15.0253C8.18562 15.2547 8.09978 15.5133 8.07508 15.781L10.0666 15.9647ZM10.0319 16.0692C10.0125 16.101 9.98608 16.1278 9.95466 16.1477L8.8847 14.458C8.65749 14.6018 8.46635 14.7959 8.32598 15.0253L10.0319 16.0692ZM9.95466 16.1477C9.92323 16.1676 9.88766 16.18 9.85068 16.184L9.63648 14.1955C9.3691 14.2243 9.11191 14.3141 8.8847 14.458L9.95466 16.1477ZM9.83677 16.1854C10.3031 16.1418 10.7634 15.9054 11.2213 15.5728L10.0459 13.9547C9.88294 14.073 9.7682 14.1374 9.69573 14.1708C9.62223 14.2046 9.61126 14.1978 9.65039 14.1941L9.83677 16.1854ZM11.2194 15.5742C11.6852 15.2374 12.1733 14.7802 12.6914 14.2612L11.2758 12.8483C10.7698 13.3553 10.3759 13.7161 10.0477 13.9533L11.2194 15.5742ZM12.6421 14.3073L12.6581 14.2933L11.3411 12.7882L11.3251 12.8022L12.6421 14.3073ZM12.6865 14.2675L14.2365 12.8025L12.8627 11.349L11.3127 12.814L12.6865 14.2675ZM14.2275 12.8109C14.2023 12.8341 14.1726 12.8517 14.1401 12.8625L13.5062 10.9657C13.2706 11.0444 13.0543 11.1722 12.8717 11.3406L14.2275 12.8109ZM14.1401 12.8625C14.1077 12.8734 14.0733 12.8772 14.0393 12.8738L14.2387 10.8838C13.9915 10.859 13.7418 10.8869 13.5062 10.9657L14.1401 12.8625ZM14.0393 12.8738C14.0053 12.8704 13.9723 12.8598 13.9427 12.8428L14.9403 11.1093C14.725 10.9854 14.4858 10.9085 14.2387 10.8838L14.0393 12.8738ZM13.9427 12.8428C13.9131 12.8257 13.8874 12.8026 13.8673 12.7748L15.4878 11.6027C15.3422 11.4014 15.1556 11.2332 14.9403 11.1093L13.9427 12.8428ZM13.8597 12.7641L17.1337 17.4181L18.7695 16.2674L15.4955 11.6134L13.8597 12.7641ZM18.6785 17.5295L19.4465 16.7165L17.9926 15.3431L17.2246 16.1561L18.6785 17.5295ZM19.4449 16.7181C19.62 16.5337 19.7371 16.302 19.7818 16.0516L17.8129 15.7003C17.8369 15.5655 17.9 15.4407 17.9942 15.3414L19.4449 16.7181ZM19.7818 16.0516C19.8264 15.8013 19.7967 15.5434 19.6963 15.3098L17.8589 16.0997C17.8048 15.9739 17.7888 15.8351 17.8129 15.7003L19.7818 16.0516ZM19.6951 15.3071L19.6821 15.2771L17.847 16.0724L17.86 16.1024L19.6951 15.3071ZM19.6999 15.3209L17.4999 9.5059L15.6293 10.2136L17.8293 16.0286L19.6999 15.3209ZM17.4999 9.50607C17.5174 9.55217 17.5208 9.6024 17.5098 9.65044L15.5605 9.20283C15.4833 9.53911 15.5072 9.89072 15.6292 10.2134L17.4999 9.50607ZM17.5098 9.65044C17.4987 9.69848 17.4737 9.74219 17.4379 9.77607L16.0632 8.32344C15.8126 8.5606 15.6377 8.86655 15.5605 9.20283L17.5098 9.65044ZM17.4377 9.77633L19.4797 7.84533L18.1055 6.39218L16.0635 8.32318L17.4377 9.77633ZM19.5037 7.8218C19.7725 7.54997 20.0312 7.15693 20.251 6.76016C20.4798 6.34697 20.7024 5.86389 20.8825 5.36816L19.0027 4.68535C18.8587 5.08163 18.6798 5.46904 18.5014 5.7911C18.3139 6.12958 18.1597 6.33654 18.0814 6.41571L19.5037 7.8218ZM20.8818 5.36999C21.0298 4.9651 21.2284 4.39344 21.2481 3.78192L19.2491 3.71759C19.2408 3.97607 19.1514 4.27841 19.0033 4.68352L20.8818 5.36999ZM20.2164 2.75027C19.6049 2.76995 19.0332 2.96855 18.6283 3.11651L19.3148 4.99501C19.7199 4.84697 20.0223 4.75756 20.2807 4.74924L20.2164 2.75027ZM18.6298 3.11596C17.6867 3.45894 16.6801 3.99916 16.1775 4.49461L17.5816 5.9189C17.783 5.72035 18.4745 5.30057 19.3133 4.99555L18.6298 3.11596Z" fill="#16A34A" mask="url(#path-1-inside-1_106_1647)"/>
</g>
</g>
</svg>
