<svg width="24" height="24" viewBox="0 0 24 24" fill="none" xmlns="http://www.w3.org/2000/svg">
<g id="material-symbols:train-outline">
<path id="Vector" d="M4.5 15.5003V15.5V6.00001C4.5 5.20437 4.70494 4.62784 5.06464 4.21585C5.46048 3.76248 5.99015 3.40642 6.67208 3.15646C7.37407 2.89915 8.18542 2.72346 9.11073 2.63472C10.0535 2.54431 11.0165 2.49935 11.9997 2.50001H12C13.0862 2.50001 14.1081 2.54544 15.066 2.6358C16.008 2.72465 16.8123 2.90029 17.4858 3.15555C18.1395 3.4033 18.6309 3.75446 18.9833 4.19872C19.3104 4.61116 19.5 5.19431 19.5 6.00001V15.5C19.5 16.3553 19.2122 17.0562 18.6343 17.6346C18.0567 18.2128 17.3561 18.5006 16.5003 18.5L15.2921 18.4992L16.1464 19.3536L17.2929 20.5H16.2071L14.3536 18.6465L14.2071 18.5H14H10H9.79289L9.64645 18.6465L7.79289 20.5H6.70711L7.85355 19.3536L8.70711 18.5H7.5C6.64473 18.5 5.94385 18.2122 5.36538 17.6343L5.012 17.988L5.36538 17.6343C4.78719 17.0567 4.49942 16.3561 4.5 15.5003ZM6.13041 4.61548L5.06614 5.50001H6.45H12H17.65H18.758L18.0249 4.6692C17.833 4.45164 17.5634 4.28546 17.2615 4.15213C16.9547 4.01661 16.5818 3.90089 16.151 3.80094C15.2665 3.59574 13.8713 3.50068 12.0002 3.50001H12C10.2267 3.50001 8.88216 3.60348 8.00122 3.82857C7.1773 4.03909 6.52286 4.28931 6.13041 4.61548ZM5.5 10V10.5H6H11H11.5V10V7.00001V6.50001H11H6H5.5V7.00001V10ZM12.5 10V10.5H13H18H18.5V10V7.00001V6.50001H18H13H12.5V7.00001V10ZM18.5 12V11.5H18H16.5H6H5.5V12V15.5C5.5 16.054 5.68624 16.5434 6.07145 16.9286C6.45666 17.3138 6.94598 17.5 7.5 17.5H16.5C17.054 17.5 17.5433 17.3138 17.9286 16.9286C18.3138 16.5434 18.5 16.054 18.5 15.5V12ZM9.22145 15.2215C9.03999 15.4029 8.81265 15.5 8.5 15.5C8.18735 15.5 7.96001 15.4029 7.77855 15.2215C7.5971 15.04 7.5 14.8127 7.5 14.5C7.5 14.1874 7.5971 13.96 7.77855 13.7786C7.96001 13.5971 8.18735 13.5 8.5 13.5C8.81265 13.5 9.03999 13.5971 9.22145 13.7786C9.4029 13.96 9.5 14.1874 9.5 14.5C9.5 14.8127 9.4029 15.04 9.22145 15.2215ZM16.2214 15.2215C16.04 15.4029 15.8127 15.5 15.5 15.5C15.1874 15.5 14.96 15.4029 14.7786 15.2215C14.5971 15.04 14.5 14.8127 14.5 14.5C14.5 14.1874 14.5971 13.96 14.7786 13.7786C14.96 13.5971 15.1874 13.5 15.5 13.5C15.8127 13.5 16.04 13.5971 16.2214 13.7786C16.4029 13.96 16.5 14.1874 16.5 14.5C16.5 14.8127 16.4029 15.04 16.2214 15.2215Z" fill="#16A34A" stroke="#16A34A"/>
</g>
</svg>
