<svg width="24" height="24" viewBox="0 0 24 24" fill="none" xmlns="http://www.w3.org/2000/svg">
<g id="ri:walk-fill">
<path id="Vector" d="M14.0167 7.97224C14.2023 8.55409 14.3928 9.02195 14.6031 9.3011C15.1153 9.98368 15.7793 10.5377 16.5426 10.9193C17.1563 11.2262 17.8206 11.4148 18.501 11.4771V12.4811C17.7145 12.4209 16.9441 12.2177 16.2281 11.88C15.361 11.4711 14.5953 10.8753 13.986 10.1352L13.2962 9.29736L13.1076 10.3661L12.4096 14.3221L12.3594 14.6065L12.5806 14.7921L14.539 16.4349L16.5451 21.9471L15.6049 22.2892L13.7369 17.155L13.6911 17.0291L13.5884 16.943L10.1984 14.098L10.1985 14.0979L10.1909 14.0918C9.98212 13.9234 9.82231 13.7021 9.72813 13.451C9.63395 13.1998 9.60883 12.928 9.6554 12.6639C9.6554 12.6639 9.6554 12.6638 9.6554 12.6638L10.1644 9.77887L10.3795 8.55976L9.37806 9.28753L8.70106 9.77953L8.63701 9.82608L8.59047 9.89014L6.75741 12.4135L5.94834 11.8255L7.92149 9.10954L11.1168 6.78854L11.1179 6.78775C11.3879 6.59054 11.716 6.48917 12.0502 6.49976L12.053 6.49983C12.4927 6.51127 12.9179 6.65917 13.2697 6.92303C13.6215 7.18684 13.8826 7.5535 14.0167 7.97224ZM14.0167 7.97224C14.0167 7.97213 14.0167 7.97201 14.0166 7.97189L14.493 7.82M14.0167 7.97224C14.0168 7.97233 14.0168 7.97242 14.0168 7.9725L14.493 7.82M14.493 7.82C14.3272 7.30236 14.0046 6.8491 13.5697 6.52301C13.1349 6.19692 12.6094 6.01414 12.066 6L19.001 11C18.2252 10.9998 17.4601 10.8191 16.7662 10.4721C16.0723 10.1252 15.4686 9.62153 15.003 9.001C14.849 8.797 14.679 8.40333 14.493 7.82ZM10.1042 18.4117L7.25532 21.8067L6.48945 21.1643L9.14305 18.0014L9.20291 17.93L9.23307 17.8419L9.74328 16.3509L10.6842 17.139L10.1042 18.4117ZM13.501 5C13.1032 5 12.7216 4.84196 12.4403 4.56066C12.159 4.27936 12.001 3.89782 12.001 3.5C12.001 3.10218 12.159 2.72064 12.4403 2.43934C12.7216 2.15803 13.1032 2 13.501 2C13.8988 2 14.2804 2.15804 14.5617 2.43934C14.843 2.72064 15.001 3.10218 15.001 3.5C15.001 3.89782 14.843 4.27936 14.5617 4.56066C14.2804 4.84196 13.8988 5 13.501 5Z" fill="#16A34A" stroke="#16A34A"/>
</g>
</svg>
